<?xml version="1.0" encoding="utf-8"?><!DOCTYPE svg PUBLIC "-//W3C//DTD SVG 1.1//EN" "http://www.w3.org/Graphics/SVG/1.1/DTD/svg11.dtd"><svg xmlns="http://www.w3.org/2000/svg" xmlns:xlink="http://www.w3.org/1999/xlink">
    <symbol viewBox="0 0 512 512" id="alert">
        <path d="M320 480H192v-96h128v96zm-16-160h-96L192 32h128l-16 288z"/>
    </symbol>

    <symbol id="button-field" width="25.5" height="25.685" viewBox="0 0 38.5 38.685">
        <rect width="24" height="9.455" rx="2" fill="none" stroke="#212b35" stroke-width="1.5"/>
        <path d="M13.112,7.982a1.714,1.714,0,0,1,.527.227,1.744,1.744,0,0,1,.415.378,1.7,1.7,0,0,1,.271.488,1.661,1.661,0,0,1,.1.558l.012,3.451a4.856,4.856,0,0,1-.4,1.982,5.109,5.109,0,0,1-1.1,1.616,5.229,5.229,0,0,1-1.643,1.089,5.06,5.06,0,0,1-2.013.4,5.971,5.971,0,0,1-2.416-.49,6.8,6.8,0,0,1-2.033-1.4L.563,12.09a1.71,1.71,0,0,1-.389-.577,1.752,1.752,0,0,1-.138-.673,1.7,1.7,0,0,1,.138-.69,1.753,1.753,0,0,1,.38-.557A1.791,1.791,0,0,1,1.82,9.083a1.822,1.822,0,0,1,.693.135A1.9,1.9,0,0,1,3.1,9.6c.162.155.323.311.483.471s.32.317.482.471l-.029-8.75a1.874,1.874,0,0,1,.124-.686A1.728,1.728,0,0,1,4.512.542,1.667,1.667,0,0,1,5.06.158a1.693,1.693,0,0,1,.7-.139,1.717,1.717,0,0,1,.674.136,1.74,1.74,0,0,1,.55.364,1.709,1.709,0,0,1,.37.542,1.646,1.646,0,0,1,.138.664L7.5,6.582Z" transform="translate(4.8 6.342) rotate(-13)" fill="#fff" stroke="#212b35" stroke-miterlimit="10" stroke-width="1.5"/>
    </symbol>
</svg>
