<svg xmlns="http://www.w3.org/2000/svg" width="116" height="20.495" viewBox="0 0 116 20.495">
  <g id="Group_2376" data-name="Group 2376" transform="translate(-20 -18)">
    <g id="Layer_2" data-name="Layer 2" transform="translate(20 18)">
      <g id="Layer_1" data-name="Layer 1">
        <path id="Path_1618" data-name="Path 1618" d="M15.4,0,6.21,12.842.784,9.695,0,11.058l7.356,6.084L16.755.788Zm6.993.422L13.2,13.263l-1.357-.786L10.671,14.52l3.677,3.042,9.4-16.353Z" fill="#38d554" fill-rule="evenodd"/>
        <path id="Path_1619" data-name="Path 1619" d="M140.432,9.3c1.727.383,3.968,1.1,3.924,3.514a2.994,2.994,0,0,1-1.257,2.545,5.114,5.114,0,0,1-3.116.923,4.662,4.662,0,0,1-4.573-2.634l2.085-1.217a2.368,2.368,0,0,0,2.488,1.622c1.279,0,1.906-.428,1.906-1.262,0-.721-.941-1.149-2.13-1.442-1.681-.427-3.946-1.1-3.9-3.469a3.038,3.038,0,0,1,1.166-2.5,4.913,4.913,0,0,1,7.085,1.4l-2.041,1.147a2.118,2.118,0,0,0-2.108-1.284c-.919,0-1.637.406-1.637,1.194,0,.743.941,1.127,2.107,1.464M162.4,9.007v6.982h-2.421V9.165c0-1.554-.83-2.455-2.175-2.455-1.5,0-2.443.991-2.443,2.973V15.99h-2.421V9.165c0-1.554-.762-2.455-2.108-2.455-1.457,0-2.488,1.014-2.488,2.973V15.99h-2.421V4.728h2.421V6.079a3.573,3.573,0,0,1,3.206-1.643,3.423,3.423,0,0,1,3.184,1.779,3.742,3.742,0,0,1,3.43-1.779c2.534,0,4.238,1.779,4.238,4.572m6.144.292c1.727.383,3.968,1.1,3.924,3.514a3,3,0,0,1-1.255,2.545,5.121,5.121,0,0,1-3.117.923,4.662,4.662,0,0,1-4.573-2.634l2.085-1.217a2.367,2.367,0,0,0,2.488,1.622c1.278,0,1.906-.428,1.906-1.262,0-.721-.941-1.149-2.13-1.442-1.681-.427-3.946-1.1-3.9-3.469a3.038,3.038,0,0,1,1.166-2.5,4.912,4.912,0,0,1,7.084,1.4l-2.04,1.147a2.116,2.116,0,0,0-2.107-1.284c-.919,0-1.637.406-1.637,1.194,0,.743.942,1.127,2.108,1.464m11.387,5.52a4.266,4.266,0,0,0,3.138-1.284,4.4,4.4,0,0,0,1.279-3.176,4.307,4.307,0,0,0-1.279-3.153,4.422,4.422,0,0,0-6.277,0,4.308,4.308,0,0,0-1.279,3.153,4.4,4.4,0,0,0,1.279,3.176,4.266,4.266,0,0,0,3.138,1.284m4.193-8.649a5.705,5.705,0,0,1,1.7,4.189,5.707,5.707,0,0,1-1.7,4.19,5.49,5.49,0,0,1-4.081,1.711,5.017,5.017,0,0,1-4.528-2.478v2.208h-1.48V0h1.48V6.935a5.019,5.019,0,0,1,4.528-2.478,5.491,5.491,0,0,1,4.081,1.712m11.431-1.441h1.48V15.989h-1.48V14.232a4.123,4.123,0,0,1-3.766,2.027c-2.713,0-4.395-1.8-4.395-4.617V4.728h1.48v6.915a2.835,2.835,0,0,0,3.049,3.176c2.152,0,3.632-1.329,3.632-4.19Zm19.189,4.234v7.027h-1.479V8.962c0-1.96-1.1-3.064-2.735-3.064-1.861,0-3.116,1.217-3.116,3.852v6.239h-1.481V8.962c0-1.982-1.008-3.064-2.624-3.064-1.793,0-3.228,1.24-3.228,3.852v6.239H198.6V4.728h1.48V6.372a3.821,3.821,0,0,1,3.43-1.914,3.461,3.461,0,0,1,3.408,2.05,3.937,3.937,0,0,1,3.632-2.05c2.511,0,4.193,1.735,4.193,4.505m7.463,5.855a4.269,4.269,0,0,0,3.139-1.284,4.4,4.4,0,0,0,1.279-3.176,4.307,4.307,0,0,0-1.279-3.153,4.423,4.423,0,0,0-6.277,0,4.308,4.308,0,0,0-1.278,3.153,4.4,4.4,0,0,0,1.279,3.176,4.263,4.263,0,0,0,3.138,1.284M226.4,6.169a5.706,5.706,0,0,1,1.7,4.189,5.707,5.707,0,0,1-1.7,4.19,5.488,5.488,0,0,1-4.08,1.711,5.018,5.018,0,0,1-4.529-2.478v6.713h-1.479V4.727h1.479V6.935a5.02,5.02,0,0,1,4.529-2.478,5.489,5.489,0,0,1,4.08,1.712" transform="translate(-112.107)" fill="#222429" fill-rule="evenodd"/>
      </g>
    </g>
  </g>
</svg>
