<svg xmlns="http://www.w3.org/2000/svg" width="25.5" height="20.997" viewBox="0 0 25.5 20.997">
  <g id="Component_74_713" data-name="Component 74 – 713" transform="translate(0.75 0.495)">
    <rect id="Rectangle_1604" data-name="Rectangle 1604" width="24" height="10" rx="2" transform="translate(0 5)" fill="none" stroke="#212b35" stroke-width="1.5"/>
    <path id="Rename" d="M16.4,273.448a4.18,4.18,0,0,0,3.071,1.365h.012l-.012.979a4.417,4.417,0,0,1-3.463-1.517,4.027,4.027,0,0,1-3.151,1.517l.012-.979c1.849-.043,1.813-.4,2.7-1.28V257.944a4.279,4.279,0,0,0-1.4-.946,4.334,4.334,0,0,0-1.668-.32h-.012v-.823a5.649,5.649,0,0,1,2.077.384,4.2,4.2,0,0,1,1.448,1.043,4.207,4.207,0,0,1,3.463-1.47l.012.823h0a4.187,4.187,0,0,0-3.083,1.309Z" transform="translate(2.513 -255.793)" fill="#212b35" stroke="#212b35" stroke-width="1"/>
    <circle id="Ellipse_883" data-name="Ellipse 883" cx="1" cy="1" r="1" transform="translate(3 9)" fill="#212b35"/>
    <circle id="Ellipse_884" data-name="Ellipse 884" cx="1" cy="1" r="1" transform="translate(8 9)" fill="#212b35"/>
    <circle id="Ellipse_885" data-name="Ellipse 885" cx="1" cy="1" r="1" transform="translate(13 9)" fill="#212b35"/>
  </g>
</svg>
