<?xml version="1.0" encoding="utf-8"?><!DOCTYPE svg PUBLIC "-//W3C//DTD SVG 1.1//EN" "http://www.w3.org/Graphics/SVG/1.1/DTD/svg11.dtd"><svg xmlns="http://www.w3.org/2000/svg" xmlns:xlink="http://www.w3.org/1999/xlink">
    <symbol id="alert" viewBox="0 0 512 512">
        <path d="M320 480H192v-96h128v96zm-16-160h-96L192 32h128l-16 288z"/>
    </symbol>

    <symbol id="pen" viewBox="0 0 18.121 18.121">
        <g transform="translate(1.061 1.061)">
            <path d="M.863,0h2.59a.863.863,0,0,1,.863.863V15.541l-2.08,2.77L0,15.541V.863A.863.863,0,0,1,.863,0Z" transform="translate(12.947 0) rotate(45)" fill="none" stroke="inherit" stroke-linejoin="round" stroke-width="1.5"/>
            <path d="M-15479.393-8198.029l-.982,1-.374,3.522,3.55-.451,1.021-.985Z" transform="translate(15482.431 8207.909)" fill="inherit" />
        </g>
    </symbol>

    <symbol id="button-field" viewBox="0 0 25.5 25.685">
        <g transform="translate(0.75 0.75)">
            <rect width="24" height="9.455" rx="2" fill="none" stroke="inherit" stroke-width="1.5"/>
            <path d="M13.112,7.982a1.714,1.714,0,0,1,.527.227,1.744,1.744,0,0,1,.415.378,1.7,1.7,0,0,1,.271.488,1.661,1.661,0,0,1,.1.558l.012,3.451a4.856,4.856,0,0,1-.4,1.982,5.109,5.109,0,0,1-1.1,1.616,5.229,5.229,0,0,1-1.643,1.089,5.06,5.06,0,0,1-2.013.4,5.971,5.971,0,0,1-2.416-.49,6.8,6.8,0,0,1-2.033-1.4L.563,12.09a1.71,1.71,0,0,1-.389-.577,1.752,1.752,0,0,1-.138-.673,1.7,1.7,0,0,1,.138-.69,1.753,1.753,0,0,1,.38-.557A1.791,1.791,0,0,1,1.82,9.083a1.822,1.822,0,0,1,.693.135A1.9,1.9,0,0,1,3.1,9.6c.162.155.323.311.483.471s.32.317.482.471l-.029-8.75a1.874,1.874,0,0,1,.124-.686A1.728,1.728,0,0,1,4.512.542,1.667,1.667,0,0,1,5.06.158a1.693,1.693,0,0,1,.7-.139,1.717,1.717,0,0,1,.674.136,1.74,1.74,0,0,1,.55.364,1.709,1.709,0,0,1,.37.542,1.646,1.646,0,0,1,.138.664L7.5,6.582Z" transform="translate(4.8 6.342) rotate(-13)" fill="#fff" stroke="inherit" stroke-miterlimit="10" stroke-width="1.5"/>
        </g>
    </symbol>

    <symbol id="checkbox" viewBox="0 0 24 24">
        <path d="M0,4.247,3.983,8,12.8,0" transform="matrix(0.978, -0.208, 0.208, 0.978, 5.6, 9.062)" fill="none" stroke="inherit" stroke-linecap="round" stroke-linejoin="round" stroke-width="1.5"/>
        <g fill="none" stroke="inherit" stroke-width="1.5">
            <rect width="24" height="24" rx="4" stroke="none"/>
            <rect x="0.75" y="0.75" width="22.5" height="22.5" rx="3.25" fill="none"/>
        </g>
    </symbol>

    <symbol id="chevron-down" viewBox="0 0 512 512">
        <path fill="inherit" d="M256 298.3l174.2-167.2c4.3-4.2 11.4-4.1 15.8.2l30.6 29.9c4.4 4.3 4.5 11.3.2 15.5L264.1 380.9c-2.2 2.2-5.2 3.2-8.1 3-3 .1-5.9-.9-8.1-3L35.2 176.7c-4.3-4.2-4.2-11.2.2-15.5L66 131.3c4.4-4.3 11.5-4.4 15.8-.2L256 298.3z"/>
    </symbol>

    <symbol id="close-button" viewBox="0 0 24 24">
        <g fill="none" stroke="inherit" stroke-width="1.5">
            <rect width="24" height="24" rx="4" stroke="none"/>
            <rect x="0.75" y="0.75" width="22.5" height="22.5" rx="3.25" fill="none"/>
        </g>
        <path d="M-13699.561,6315.441l-12,12" transform="translate(13717.561 -6309.441)" fill="none" stroke="inherit" stroke-linecap="round" stroke-width="1.5"/>
        <path d="M-13711.561,6315.441l12,12" transform="translate(13717.561 -6309.441)" fill="none" stroke="inherit" stroke-linecap="round" stroke-width="1.5"/>
    </symbol>

    <symbol id="compliance" viewBox="0 0 24 24">
        <path d="M0,1.593,1.556,3,5,0" transform="matrix(0.978, -0.208, 0.208, 0.978, 4, 15.04)" fill="none" stroke="inherit" stroke-linecap="round" stroke-linejoin="round" stroke-width="1.5"/>
        <path d="M0,1.593,1.556,3,5,0" transform="matrix(0.978, -0.208, 0.208, 0.978, 4, 7.04)" fill="none" stroke="inherit" stroke-linecap="round" stroke-linejoin="round" stroke-width="1.5"/>
        <g fill="none" stroke="inherit" stroke-width="1.5">
            <rect width="24" height="24" rx="4" stroke="none"/>
            <rect x="0.75" y="0.75" width="22.5" height="22.5" rx="3.25" fill="none"/>
        </g>
        <path d="M-18238.088,8919h-8" transform="translate(18258.088 -8911)" fill="none" stroke="inherit" stroke-linecap="round" stroke-width="1.5"/>
        <path d="M-18238.088,8919h-8" transform="translate(18258.088 -8903)" fill="none" stroke="inherit" stroke-linecap="round" stroke-width="1.5"/>
    </symbol>

    <symbol id="desktop" viewBox="0 0 19 16.75">
        <g>
            <g fill="none" stroke="inherit" stroke-width="1.5">
                <rect width="19" height="12" rx="2" stroke="none"/>
                <rect x="0.75" y="0.75" width="17.5" height="10.5" rx="1.25" fill="none"/>
            </g>
        </g>
        <path d="M-9875.353-6708v2.1l-2.315,1.9h9l-2.315-1.9v-2.1" transform="translate(9882.668 6720)" fill="none" stroke="inherit" stroke-linecap="round" stroke-linejoin="round" stroke-width="1.5"/>
    </symbol>

    <symbol id="email-field" viewBox="0 0 26.5 17.5">
        <g transform="translate(0.75 0.75)">
            <rect width="20.192" height="16" rx="1" fill="none" stroke="inherit" stroke-width="1.5"/>
            <path d="M-10010.508-6291.4l9.214,7.274,9.475-7.4" transform="translate(10011.288 6292.405)" fill="none" stroke="inherit" stroke-linejoin="round" stroke-width="1.5"/>
            <circle cx="1.442" cy="1.442" r="1.442" transform="translate(15.385 10)" fill="none" stroke="inherit" stroke-width="1.5"/>
            <circle cx="1.442" cy="1.442" r="1.442" transform="translate(22.115 10)" fill="none" stroke="inherit" stroke-width="1.5"/>
            <circle cx="1.442" cy="1.442" r="1.442" transform="translate(10.577 10)" fill="none" stroke="inherit" stroke-width="1.5"/>
        </g>
    </symbol>

    <symbol id="exit" viewBox="0 0 15.501 22.5">
        <g transform="translate(14126.751 -7736.25)">
            <path d="M-14168.916,7743.029v-7.113h14v21h-14v-7.54" transform="translate(42.916 1.083)" fill="none" stroke="inherit" stroke-linecap="round" stroke-linejoin="round" stroke-width="1.5"/>
            <path d="M-14121.013,7746.238l4,3.5-4,3.5" transform="translate(0.013 -2.238)" fill="none" stroke="inherit" stroke-linecap="round" stroke-linejoin="round" stroke-width="1.5"/>
            <path d="M-14118.42,7748.5h-8" transform="translate(0.419 -1)" fill="none" stroke="inherit" stroke-linecap="round" stroke-width="1.5"/>
        </g>
    </symbol>

    <symbol id="form" viewBox="0 0 25.5 27.5">
        <g transform="translate(0.75 0.75)">
            <rect width="24" height="8.125" rx="2" fill="none" stroke="inherit" stroke-width="1.5"/>
            <rect width="24" height="8.125" rx="2" transform="translate(0 11.375)" fill="none" stroke="inherit" stroke-width="1.5"/>
            <rect width="16" height="3.25" rx="1.625" transform="translate(0 22.75)" fill="none" stroke="inherit" stroke-width="1.5"/>
        </g>
    </symbol>

    <symbol id="name-field" viewBox="0 0 25.5 20.997">
        <g transform="translate(0.75 0.495)">
            <rect width="24" height="10" rx="2" transform="translate(0 5)" fill="none" stroke="inherit" stroke-width="1.5"/>
            <path d="M16.4,273.448a4.18,4.18,0,0,0,3.071,1.365h.012l-.012.979a4.417,4.417,0,0,1-3.463-1.517,4.027,4.027,0,0,1-3.151,1.517l.012-.979c1.849-.043,1.813-.4,2.7-1.28V257.944a4.279,4.279,0,0,0-1.4-.946,4.334,4.334,0,0,0-1.668-.32h-.012v-.823a5.649,5.649,0,0,1,2.077.384,4.2,4.2,0,0,1,1.448,1.043,4.207,4.207,0,0,1,3.463-1.47l.012.823h0a4.187,4.187,0,0,0-3.083,1.309Z" transform="translate(2.513 -255.793)" fill="inherit" stroke="inherit" stroke-width="1"/>
            <circle cx="1" cy="1" r="1" transform="translate(3 9)" fill="inherit"/>
            <circle cx="1" cy="1" r="1" transform="translate(8 9)" fill="inherit"/>
            <circle cx="1" cy="1" r="1" transform="translate(13 9)" fill="inherit"/>
        </g>
    </symbol>

    <symbol id="phone" viewBox="0 0 9 16">
        <rect width="7" height="1.5" transform="translate(1 9)" fill="inherit" stroke="none"/>
        <g fill="none" stroke="inherit" stroke-width="1.5">
            <rect width="9" height="16" rx="2" stroke="none"/>
            <rect x="0.75" y="0.75" width="7.5" height="14.5" rx="1.25" fill="none"/>
        </g>
        <rect width="3" height="1" rx="0.5" transform="translate(3 12)" fill="inherit" stroke="none"/>
    </symbol>

    <symbol id="phone-field" viewBox="0 0 26.5 28.5">
        <g transform="translate(0.75 0.75)">
            <rect width="12.037" height="1.8" rx="0.9" transform="translate(1.852 8.1)" fill="inherit" stroke="none"/>
            <rect width="12.037" height="1.8" rx="0.9" transform="translate(1.852 11.7)" fill="inherit" stroke="none"/>
            <rect width="15.741" height="27" rx="2" fill="none" stroke="inherit" stroke-width="1.5"/>
            <rect width="4.615" height="1" rx="0.5" transform="translate(5.538 23.4)" fill="inherit"/>
            <circle cx="1.389" cy="1.389" r="1.389" transform="translate(11.111 15.3)" fill="none" stroke="inherit" stroke-width="1.5"/>
            <circle cx="1.389" cy="1.389" r="1.389" transform="translate(17.593 15.3)" fill="none" stroke="inherit" stroke-width="1.5"/>
            <circle cx="1.389" cy="1.389" r="1.389" transform="translate(22.222 15.3)" fill="none" stroke="inherit" stroke-width="1.5"/>
        </g>
    </symbol>

    <symbol id="redo" viewBox="0 0 17.15 20.15">
        <g transform="translate(0.65)">
            <path d="M13,16H8A8,8,0,0,1,8,0h5V1H8A7,7,0,0,0,8,15h5v1Z" transform="translate(0 3.5)" fill="inherit" stroke="inherit" stroke-width="1.3"/>
            <path d="M4,0,8,5H0Z" transform="translate(16.5) rotate(90)" fill="inherit"/>
        </g>
    </symbol>

    <symbol viewBox="0 0 512 512" id="arrow-right">
        <path d="M85 277.375h259.704L225.002 397.077 256 427l171-171L256 85l-29.922 29.924 118.626 119.701H85v42.75z" fill="inherit" stroke="inherit"/>
    </symbol>

    <symbol id="tablet" viewBox="0 0 13 16">
        <rect width="11" height="1.5" transform="translate(1 9)" fill="inherit" stroke="none"/>
        <g fill="none" stroke="inherit" stroke-width="1.5">
            <rect width="13" height="16" rx="2" stroke="none"/>
            <rect x="0.75" y="0.75" width="11.5" height="14.5" rx="1.25" fill="none"/>
        </g>
        <rect width="3" height="1" rx="0.5" transform="translate(5 12)" fill="inherit" stroke="none"/>
    </symbol>

    <symbol id="text" viewBox="0 0 24 24">
        <g fill="none" stroke="inherit" stroke-width="1.5">
            <rect width="24" height="24" rx="4" stroke="none"/>
            <rect x="0.75" y="0.75" width="22.5" height="22.5" rx="3.25" fill="none"/>
        </g>
        <path d="M-19816,7308.627v-12" transform="translate(19828 -7290.626)" fill="none" stroke="inherit" stroke-linecap="round" stroke-width="1.5"/>
        <path d="M-19816,7308.627v-12" transform="translate(7314.627 19822) rotate(90)" fill="none" stroke="inherit" stroke-linecap="round" stroke-width="1.5"/>
    </symbol>

    <symbol id="theme" viewBox="0 0 25.5 25.5">
        <g transform="translate(0.75 0.75)">
            <path d="M2,0H12a0,0,0,0,1,0,0V24a0,0,0,0,1,0,0H2a2,2,0,0,1-2-2V2A2,2,0,0,1,2,0Z" fill="none" stroke="inherit" stroke-width="1.5"/>
            <path d="M0,0H10a2,2,0,0,1,2,2V16a0,0,0,0,1,0,0H0a0,0,0,0,1,0,0V0A0,0,0,0,1,0,0Z" transform="translate(12)" fill="none" stroke="inherit" stroke-width="1.5"/>
            <path d="M0,0H12a0,0,0,0,1,0,0V6a2,2,0,0,1-2,2H0A0,0,0,0,1,0,8V0A0,0,0,0,1,0,0Z" transform="translate(12 16)" fill="none" stroke="inherit" stroke-width="1.5"/>
            <rect width="5.6" height="8" transform="translate(12 16)" fill="none" stroke="inherit" stroke-width="1.5"/>
        </g>
    </symbol>

    <symbol id="trash" viewBox="0 0 19.3 20.3">
        <g transform="translate(0.65 0.65)">
            <path d="M3,6H21" transform="translate(-3 -3)" fill="none" stroke="inherit" stroke-linecap="round" stroke-linejoin="round" stroke-width="1.3"/>
            <path d="M19,6V20a2,2,0,0,1-2,2H7a2,2,0,0,1-2-2V6M8,6H8c0-1.1.349-3,2-3h4c1.546,0,2,1.9,2,3h0" transform="translate(-3 -3)" fill="none" stroke="inherit" stroke-linecap="round" stroke-linejoin="round" stroke-width="1.3"/>
            <rect width="1" height="10" rx="0.5" transform="translate(11 6)" stroke="none"/>
            <rect width="1" height="10" rx="0.5" transform="translate(6 6)" stroke="none"/>
        </g>
    </symbol>

    <symbol id="undo" viewBox="0 0 17.15 20.15">
        <path d="M9926,4787h-5a8,8,0,0,1,0-16h5v1h-5a7,7,0,0,0,0,14h5v1Z" transform="translate(9929.5 4790.5) rotate(180)" fill="inherit" stroke="inherit" stroke-width="1.3"/>
        <path d="M4,0,8,5H0Z" transform="translate(0 8) rotate(-90)" fill="inherit"/>
    </symbol>
</svg>
